# xmcd
#
# Track frame offsets:
#	182
#	37140
#	58922
#	83272
#	100480
#	128955
#	152025
#	176295
#
# Disc length: 3044 seconds
#
# Revision: 0
# Processed by: cddbd v1.4b42PL1 Copyright (c) Steve Scherf et al.
# Submitted via: dBpowerAMP V4.0
#
DISCID=620be208
DTITLE=Jeff Lang - Real Scars
DYEAR=1900
DGENRE=Blues
TTITLE0=Scream
TTITLE1=Mr. God
TTITLE2=Goin' West
TTITLE3=If You See My Baby
TTITLE4=Too Easy to Kill
TTITLE5=Throw it All
TTITLE6=Charlies Pool
TTITLE7=Ballad of Hollis Brown
EXTD=
EXTT0=
EXTT1=
EXTT2=
EXTT3=
EXTT4=
EXTT5=
EXTT6=
EXTT7=
PLAYORDER=
